<?xml version="1.0" standalone="no"?><!DOCTYPE svg PUBLIC "-//W3C//DTD SVG 1.1//EN" "http://www.w3.org/Graphics/SVG/1.1/DTD/svg11.dtd"><svg t="1613265873665" class="icon" viewBox="0 0 1024 1024" version="1.1" xmlns="http://www.w3.org/2000/svg" p-id="813" xmlns:xlink="http://www.w3.org/1999/xlink" width="200" height="200"><defs><style type="text/css"></style></defs><path d="M790.5 857.7c-6.2 0-12.3-1.1-18.1-3.1l-126-44.8c-47.7 19.1-90.6 23.1-139.5 23.1-49.8 0-98.2-8.9-143.8-26.4-44.3-17-84.2-41.4-118.5-72.6-34.7-31.5-62-68.3-81.2-109.3-20-42.9-30.2-88.6-30.2-135.7s10.2-92.7 30.2-135.7c19.2-41.1 46.5-77.9 81.2-109.3 34.3-31.1 74.2-55.5 118.5-72.6 45.6-17.5 94-26.4 143.8-26.4s98.2 8.9 143.8 26.4c44.3 17 84.2 41.4 118.5 72.6 34.7 31.5 62 68.3 81.2 109.3 20 42.9 30.2 88.6 30.2 135.7 0 72.2-17.9 130.7-56.1 183l19.4 123.4c2.9 18.7-4.3 37.8-18.9 49.9-9.6 8.1-21.9 12.5-34.5 12.5zM644.3 745.3L783 794.7l-21.9-139.2 8.2-10.3c35.4-44.4 51.2-92.6 51.2-156.2 0-38.3-8.3-75.4-24.6-110.3-15.8-33.8-38.3-64.2-67.1-90.2-28.8-26.1-62.4-46.6-99.7-61-38.6-15-79.8-22.5-122.2-22.5-42.4 0-83.6 7.5-122.3 22.4-37.4 14.3-70.9 34.9-99.7 61-28.8 26.1-51.3 56.5-67.1 90.2-16.3 34.9-24.6 72.1-24.6 110.3 0 38.3 8.3 75.4 24.6 110.3 15.8 33.8 38.3 64.2 67.1 90.2 28.8 26.1 62.4 46.6 99.7 61 38.7 14.9 79.9 22.4 122.3 22.4 46.4 0 83.7-3.8 126.5-22.7l10.9-4.8z" fill="#262626" p-id="814"></path><path d="M438.4 429.1c-8.8-6.7-21.3-5-28 3.7l-32.1 41.9-31.6-41.7c-6.7-8.8-19.2-10.6-28-3.9-8.8 6.7-10.6 19.2-3.9 28l43.4 57.5 0.3 43.1c0.1 11 9 19.9 20 19.9h0.1c11-0.1 19.9-9.1 19.9-20.1l-0.3-42.9 43.9-57.4c6.8-8.8 5.1-21.3-3.7-28.1zM544.4 520.7c10.3 0 18.7-8.7 18.7-19.4s-8.4-19.4-18.7-19.4h-47v-14.5h47c10.3 0 18.7-8.7 18.7-19.4s-8.4-19.4-18.7-19.4h-65.7c-10.3 0-18.7 8.7-18.7 19.4v106.4c0 10.7 8.4 19.4 18.7 19.4h65.7c10.3 0 18.7-8.7 18.7-19.4s-8.4-19.4-18.7-19.4h-47v-14.5h47zM639.5 449.1c14.8 0 27.1 8.7 27.1 19.4 0 7.2 8.2 13.1 18.2 13.1s18.2-5.9 18.2-13.1c0-25.2-28.4-45.6-63.3-45.6s-63.3 20.5-63.3 45.6c0 25.3 28.4 45.8 63.3 45.8 14.8 0 27.1 8.8 27.1 19.7 0 10.7-12.1 19.4-27.1 19.4-14.8 0-27.1-8.7-27.1-19.4 0-7.2-8.2-13.1-18.2-13.1s-18.2 5.9-18.2 13.1c0 25.2 28.4 45.6 63.3 45.6 35 0 63.3-20.5 63.3-45.6 0-25.3-28.4-45.8-63.3-45.8-14.8 0-27.1-8.8-27.1-19.7 0.1-10.6 12.1-19.4 27.1-19.4z" fill="#CE2C1B" p-id="815"></path></svg>